<svg xmlns="http://www.w3.org/2000/svg" viewBox="0 0 400 240"><defs><linearGradient id="body" x2=".7" y2="1"><stop stop-color="#4a505a"/><stop offset="1" stop-color="#15191f"/></linearGradient><radialGradient id="cone"><stop stop-color="#11151b"/><stop offset=".5" stop-color="#444c59"/><stop offset=".65" stop-color="#161c23"/><stop offset="1" stop-color="#343c47"/></radialGradient></defs><rect x="20" y="58" width="360" height="126" rx="10" fill="url(#body)" stroke="#59616c"/><rect x="31" y="106" width="11.52" height="65" rx="2" fill="#d6dce0" stroke="#7a838e"/><rect x="39.788" y="106" width="6.489599999999999" height="40" rx="1" fill="#14181e" stroke="#07090b"/><rect x="44.519999999999996" y="106" width="11.52" height="65" rx="2" fill="#d6dce0" stroke="#7a838e"/><rect x="53.30799999999999" y="106" width="6.489599999999999" height="40" rx="1" fill="#14181e" stroke="#07090b"/><rect x="58.04" y="106" width="11.52" height="65" rx="2" fill="#d6dce0" stroke="#7a838e"/><rect x="71.56" y="106" width="11.52" height="65" rx="2" fill="#d6dce0" stroke="#7a838e"/><rect x="80.348" y="106" width="6.489599999999999" height="40" rx="1" fill="#14181e" stroke="#07090b"/><rect x="85.08" y="106" width="11.52" height="65" rx="2" fill="#d6dce0" stroke="#7a838e"/><rect x="93.868" y="106" width="6.489599999999999" height="40" rx="1" fill="#14181e" stroke="#07090b"/><rect x="98.6" y="106" width="11.52" height="65" rx="2" fill="#d6dce0" stroke="#7a838e"/><rect x="107.38799999999999" y="106" width="6.489599999999999" height="40" rx="1" fill="#14181e" stroke="#07090b"/><rect x="112.12" y="106" width="11.52" height="65" rx="2" fill="#d6dce0" stroke="#7a838e"/><rect x="125.64" y="106" width="11.52" height="65" rx="2" fill="#d6dce0" stroke="#7a838e"/><rect x="134.428" y="106" width="6.489599999999999" height="40" rx="1" fill="#14181e" stroke="#07090b"/><rect x="139.16" y="106" width="11.52" height="65" rx="2" fill="#d6dce0" stroke="#7a838e"/><rect x="147.948" y="106" width="6.489599999999999" height="40" rx="1" fill="#14181e" stroke="#07090b"/><rect x="152.68" y="106" width="11.52" height="65" rx="2" fill="#d6dce0" stroke="#7a838e"/><rect x="166.2" y="106" width="11.52" height="65" rx="2" fill="#d6dce0" stroke="#7a838e"/><rect x="174.988" y="106" width="6.489599999999999" height="40" rx="1" fill="#14181e" stroke="#07090b"/><rect x="179.72" y="106" width="11.52" height="65" rx="2" fill="#d6dce0" stroke="#7a838e"/><rect x="188.508" y="106" width="6.489599999999999" height="40" rx="1" fill="#14181e" stroke="#07090b"/><rect x="193.24" y="106" width="11.52" height="65" rx="2" fill="#d6dce0" stroke="#7a838e"/><rect x="202.02800000000002" y="106" width="6.489599999999999" height="40" rx="1" fill="#14181e" stroke="#07090b"/><rect x="206.76" y="106" width="11.52" height="65" rx="2" fill="#d6dce0" stroke="#7a838e"/><rect x="220.28" y="106" width="11.52" height="65" rx="2" fill="#d6dce0" stroke="#7a838e"/><rect x="229.068" y="106" width="6.489599999999999" height="40" rx="1" fill="#14181e" stroke="#07090b"/><rect x="233.79999999999998" y="106" width="11.52" height="65" rx="2" fill="#d6dce0" stroke="#7a838e"/><rect x="242.588" y="106" width="6.489599999999999" height="40" rx="1" fill="#14181e" stroke="#07090b"/><rect x="247.32" y="106" width="11.52" height="65" rx="2" fill="#d6dce0" stroke="#7a838e"/><rect x="260.84000000000003" y="106" width="11.52" height="65" rx="2" fill="#d6dce0" stroke="#7a838e"/><rect x="269.62800000000004" y="106" width="6.489599999999999" height="40" rx="1" fill="#14181e" stroke="#07090b"/><rect x="274.36" y="106" width="11.52" height="65" rx="2" fill="#d6dce0" stroke="#7a838e"/><rect x="283.148" y="106" width="6.489599999999999" height="40" rx="1" fill="#14181e" stroke="#07090b"/><rect x="287.88" y="106" width="11.52" height="65" rx="2" fill="#d6dce0" stroke="#7a838e"/><rect x="296.668" y="106" width="6.489599999999999" height="40" rx="1" fill="#14181e" stroke="#07090b"/><rect x="301.4" y="106" width="11.52" height="65" rx="2" fill="#d6dce0" stroke="#7a838e"/><rect x="314.92" y="106" width="11.52" height="65" rx="2" fill="#d6dce0" stroke="#7a838e"/><rect x="323.708" y="106" width="6.489599999999999" height="40" rx="1" fill="#14181e" stroke="#07090b"/><rect x="328.44" y="106" width="11.52" height="65" rx="2" fill="#d6dce0" stroke="#7a838e"/><rect x="337.228" y="106" width="6.489599999999999" height="40" rx="1" fill="#14181e" stroke="#07090b"/><rect x="341.96" y="106" width="11.52" height="65" rx="2" fill="#d6dce0" stroke="#7a838e"/><rect x="355.48" y="106" width="11.52" height="65" rx="2" fill="#d6dce0" stroke="#7a838e"/><rect x="364.26800000000003" y="106" width="6.489599999999999" height="40" rx="1" fill="#14181e" stroke="#07090b"/><rect x="174" y="72" width="54" height="21" rx="3" fill="#16363d" stroke="#54818a"/><circle cx="46" cy="83" r="7" fill="#111820" stroke="#69727f"/><circle cx="73" cy="83" r="7" fill="#111820" stroke="#69727f"/><circle cx="100" cy="83" r="7" fill="#111820" stroke="#69727f"/><circle cx="306" cy="83" r="7" fill="#111820" stroke="#69727f"/><circle cx="337" cy="83" r="7" fill="#111820" stroke="#69727f"/><text x="200" y="223" fill="#8994a2" font-family="Arial,sans-serif" font-size="9" text-anchor="middle" letter-spacing="3">iDANCE / KEY-49</text></svg>
