<svg xmlns="http://www.w3.org/2000/svg" viewBox="0 0 400 240"><defs><linearGradient id="body" x2=".7" y2="1"><stop stop-color="#4a505a"/><stop offset="1" stop-color="#15191f"/></linearGradient><radialGradient id="cone"><stop stop-color="#11151b"/><stop offset=".5" stop-color="#444c59"/><stop offset=".65" stop-color="#161c23"/><stop offset="1" stop-color="#343c47"/></radialGradient></defs><rect x="83" y="22" width="234" height="188" rx="14" fill="url(#body)" stroke="#59616c"/><rect x="101" y="74" width="42" height="46" rx="5" fill="#2b343e" stroke="#60e9f4"/><rect x="152" y="74" width="42" height="46" rx="5" fill="#2b343e" stroke="#60e9f4"/><rect x="203" y="74" width="42" height="46" rx="5" fill="#2b343e" stroke="#60e9f4"/><rect x="254" y="74" width="42" height="46" rx="5" fill="#2b343e" stroke="#60e9f4"/><rect x="101" y="131" width="42" height="46" rx="5" fill="#2b343e" stroke="#9a8ccc"/><rect x="152" y="131" width="42" height="46" rx="5" fill="#2b343e" stroke="#9a8ccc"/><rect x="203" y="131" width="42" height="46" rx="5" fill="#2b343e" stroke="#9a8ccc"/><rect x="254" y="131" width="42" height="46" rx="5" fill="#2b343e" stroke="#9a8ccc"/><circle cx="115" cy="48" r="9" fill="#171d25" stroke="#69727f"/><circle cx="163" cy="48" r="9" fill="#171d25" stroke="#69727f"/><circle cx="211" cy="48" r="9" fill="#171d25" stroke="#69727f"/><circle cx="259" cy="48" r="9" fill="#171d25" stroke="#69727f"/><text x="200" y="229" fill="#8994a2" font-family="Arial,sans-serif" font-size="9" text-anchor="middle" letter-spacing="3">iDANCE / BEAT-8</text></svg>
